<svg width="140" height="122" viewBox="0 0 140 122" fill="none" xmlns="http://www.w3.org/2000/svg">
<g clip-path="url(#clip0_5_114)">
<path d="M116.555 101.65C116.565 101.64 116.565 101.62 116.575 101.61C116.594 101.579 116.607 101.545 116.614 101.51C116.624 101.48 116.635 101.44 116.645 101.41C116.653 101.377 116.656 101.343 116.655 101.31C116.655 101.29 116.665 101.28 116.665 101.26C116.665 101.24 116.655 101.23 116.655 101.21C116.655 101.19 116.645 101.14 116.645 101.11C116.645 101.08 116.624 101.04 116.614 101.01C116.604 100.976 116.59 100.942 116.575 100.91C116.565 100.9 116.565 100.88 116.555 100.87L105.339 81.4448H127.761C127.882 81.4411 128.002 81.4103 128.11 81.3549C128.14 81.3349 128.16 81.3149 128.19 81.2949C128.271 81.2441 128.34 81.1757 128.39 81.0949C128.4 81.0749 128.42 81.0649 128.44 81.0449L139.796 61.38C139.806 61.37 139.806 61.35 139.816 61.34C139.836 61.3094 139.849 61.2755 139.856 61.24C139.866 61.21 139.876 61.17 139.886 61.14C139.895 61.1074 139.898 61.0737 139.896 61.0401C139.896 61.0201 139.906 61.0101 139.906 60.9901C139.906 60.9701 139.896 60.9601 139.896 60.9401C139.896 60.9201 139.886 60.8701 139.886 60.8401C139.886 60.8101 139.866 60.7701 139.856 60.7401C139.846 60.7058 139.832 60.6724 139.816 60.6402C139.806 60.6302 139.806 60.6102 139.796 60.6002L128.44 40.9352C128.423 40.9098 128.403 40.8864 128.38 40.8652C128.349 40.8204 128.312 40.7801 128.27 40.7453C128.229 40.713 128.185 40.6829 128.14 40.6553C128.1 40.6294 128.056 40.6092 128.01 40.5953C127.959 40.5757 127.905 40.5656 127.851 40.5653C127.821 40.5653 127.791 40.5453 127.761 40.5453H105.339L116.555 21.1203C116.565 21.1103 116.565 21.0903 116.575 21.0803C116.594 21.0497 116.607 21.0158 116.614 20.9803C116.624 20.9503 116.635 20.9104 116.645 20.8804C116.653 20.8477 116.656 20.814 116.655 20.7804C116.655 20.7604 116.665 20.7504 116.665 20.7304C116.665 20.7104 116.655 20.7004 116.655 20.6804C116.655 20.6604 116.645 20.6104 116.645 20.5804C116.645 20.5504 116.624 20.5105 116.614 20.4805C116.604 20.4462 116.59 20.4127 116.575 20.3805C116.565 20.3705 116.565 20.3505 116.555 20.3405L105.209 0.675545C105.191 0.650159 105.171 0.6267 105.149 0.605563C105.118 0.563193 105.085 0.523096 105.049 0.485593C105.007 0.453278 104.964 0.423243 104.919 0.395617C104.878 0.369691 104.835 0.349502 104.789 0.335632C104.738 0.316058 104.683 0.305896 104.629 0.30564C104.599 0.30564 104.569 0.285645 104.539 0.285645H81.8368C81.8168 0.285645 81.8068 0.295642 81.7868 0.295642C81.7668 0.295642 81.7169 0.30564 81.6869 0.30564L81.5769 0.335632C81.5452 0.344692 81.5148 0.358153 81.4869 0.375622C81.4751 0.383573 81.4611 0.387115 81.447 0.385619L81.4169 0.415611C81.3885 0.433122 81.3618 0.453201 81.337 0.475596C81.3079 0.499678 81.281 0.526456 81.257 0.555576C81.237 0.585568 81.217 0.605563 81.1971 0.635555C81.1847 0.646948 81.1745 0.6605 81.167 0.675545L69.951 20.1006L58.735 0.675545C58.7176 0.650159 58.6974 0.6267 58.675 0.605563C58.6411 0.56313 58.6044 0.523047 58.565 0.485593C58.5274 0.455519 58.4873 0.428759 58.4451 0.405614C58.4047 0.379688 58.361 0.3595 58.3151 0.34563C58.2643 0.32517 58.2099 0.314977 58.1551 0.315638C58.1251 0.315638 58.0952 0.295642 58.0652 0.295642H35.3633C35.3433 0.295642 35.3332 0.30564 35.3132 0.30564C35.2932 0.30564 35.2433 0.315638 35.2133 0.315638L35.1033 0.34563C35.0716 0.354689 35.0413 0.36815 35.0133 0.385619C35.0016 0.393571 34.9875 0.397113 34.9734 0.395617C34.962 0.407966 34.9484 0.41813 34.9334 0.425609C34.9049 0.44312 34.8782 0.463198 34.8534 0.485593C34.8243 0.509674 34.7975 0.536454 34.7734 0.565573C34.7534 0.595566 34.7335 0.615561 34.7135 0.645553C34.7011 0.656945 34.6909 0.670498 34.6834 0.685543L23.3375 20.3505C23.323 20.3788 23.3129 20.4092 23.3075 20.4405C23.2863 20.4889 23.2695 20.5391 23.2574 20.5904C23.2441 20.69 23.2441 20.7908 23.2574 20.8904C23.2695 20.9417 23.2863 20.9919 23.3075 21.0403C23.3129 21.0716 23.323 21.102 23.3375 21.1303L34.5535 40.5553H12.1315C12.1115 40.5553 12.1014 40.5653 12.0814 40.5653C12.0614 40.5653 12.0115 40.5753 11.9815 40.5753L11.8715 40.6053C11.8398 40.6144 11.8095 40.6278 11.7815 40.6453C11.7715 40.6553 11.7516 40.6553 11.7416 40.6653L11.7116 40.6953C11.6831 40.7128 11.6564 40.7329 11.6316 40.7553C11.6025 40.7794 11.5757 40.8061 11.5516 40.8353C11.5316 40.8652 11.5117 40.8852 11.4917 40.9152C11.4793 40.9266 11.4691 40.9402 11.4617 40.9552L0.10568 60.6202C0.0912415 60.6485 0.0811033 60.6788 0.0756616 60.7102C0.0545301 60.7585 0.0377528 60.8087 0.0256304 60.8601C0.0122899 60.9596 0.0122899 61.0605 0.0256304 61.16C0.0377528 61.2114 0.0545301 61.2616 0.0756616 61.31C0.0811033 61.3413 0.0912415 61.3717 0.10568 61.4L11.4617 81.0649L11.4917 81.0949C11.5119 81.1272 11.5352 81.1574 11.5616 81.1849C11.6016 81.2249 11.6416 81.2549 11.6816 81.2949C11.7115 81.3149 11.7216 81.3449 11.7516 81.3549C11.7633 81.3628 11.7774 81.3664 11.7915 81.3649C11.9 81.4203 12.0195 81.4511 12.1413 81.4548H34.5635L23.3575 100.88C23.343 100.908 23.3329 100.939 23.3275 100.97C23.3063 101.018 23.2896 101.068 23.2774 101.12C23.2641 101.219 23.2641 101.32 23.2774 101.42C23.2896 101.471 23.3063 101.521 23.3275 101.57C23.3329 101.601 23.343 101.631 23.3575 101.66L34.7035 121.325L34.7335 121.355C34.7536 121.387 34.777 121.417 34.8034 121.445C34.8434 121.485 34.8834 121.515 34.9233 121.555C34.9533 121.575 34.9634 121.605 34.9934 121.615C35.0051 121.622 35.0192 121.626 35.0333 121.625C35.1418 121.68 35.2613 121.711 35.3831 121.715H58.0852C58.2071 121.711 58.3265 121.68 58.4351 121.625C58.4651 121.605 58.485 121.585 58.515 121.565C58.5958 121.514 58.6642 121.445 58.715 121.365C58.725 121.345 58.7449 121.335 58.7649 121.315L69.981 101.89L81.1971 121.315L81.2271 121.345C81.2472 121.377 81.2706 121.407 81.297 121.435C81.337 121.475 81.377 121.505 81.4169 121.545C81.4469 121.565 81.4569 121.595 81.4869 121.605C81.4986 121.613 81.5128 121.616 81.5269 121.615C81.6354 121.67 81.7549 121.701 81.8767 121.705H104.579C104.701 121.701 104.82 121.67 104.929 121.615C104.959 121.595 104.979 121.575 105.009 121.555C105.089 121.504 105.158 121.435 105.209 121.355C105.219 121.335 105.239 121.325 105.259 121.305L116.555 101.65ZM104.069 120.135H83.1763L93.6226 102.04H114.515L104.069 120.135ZM57.5854 120.135H36.6927L59.0348 81.4448H79.9275L57.5854 120.135ZM13.4509 79.8652L23.8972 61.7699H68.5715L58.1251 79.8652H13.4509ZM12.0914 42.8947L22.5377 60.9901L12.0914 79.0854L1.64505 60.9901L12.0914 42.8947ZM24.8869 20.7204L35.3332 2.62504L57.6753 41.3151L47.2291 59.4105L24.8869 20.7204ZM81.8268 2.63504L92.2731 20.7304L69.941 59.4205L59.4946 41.3251L81.8268 2.63504ZM104.069 1.84525L114.515 19.9406H93.6226L83.1763 1.84525H104.069ZM127.321 42.1149L137.767 60.2103H93.0929L82.6465 42.1149H127.321ZM81.277 42.8947L91.2634 60.2003H71.2805L81.277 42.8947ZM68.5715 60.2003H48.5886L58.575 42.8947L68.5715 60.2003ZM69.931 62.5597L79.9175 79.8652H59.9345L69.931 62.5597ZM71.2905 61.7799H92.1732L114.505 100.47H93.6126L71.2905 61.7799ZM93.9925 61.7799H137.757L127.311 79.8752H104.429L93.9925 61.7799ZM82.6465 40.5353L93.6326 21.5102H114.525L103.539 40.5353H82.6465ZM58.575 39.7555L36.6927 1.84525H57.5854L69.0313 21.6602L58.575 39.7555ZM45.8596 60.2003H23.8872L13.4409 42.1049H35.4132L45.8596 60.2003ZM57.2155 81.4448L35.3332 119.355L24.8869 101.26L36.3229 81.4448H57.2155ZM81.277 82.2246L92.2631 101.25L81.8168 119.345L70.8307 100.31L81.277 82.2246Z" fill="white"/>
</g>
<defs>
<clipPath id="clip0_5_114">
<rect width="139.891" height="121.438" fill="white" transform="translate(0.015625 0.28125)"/>
</clipPath>
</defs>
</svg>
